<svg width="1242" height="163" viewBox="0 0 1242 163" fill="none" xmlns="http://www.w3.org/2000/svg">
<path fill-rule="evenodd" clip-rule="evenodd" d="M0 160.287V2.7129H56.3505C108.676 2.7129 146.152 35.1763 146.152 81.387C146.152 127.594 108.681 160.287 56.3505 160.287H0ZM56.3505 159.157C108.211 159.157 145.03 126.828 145.03 81.387C145.03 35.9459 108.211 3.84327 56.3505 3.84327H1.12252V159.157H56.3505ZM35.2471 35.2677V127.732H60.6161C75.0705 127.732 87.3577 122.902 96.0218 114.728C104.681 106.558 109.782 94.9927 109.782 81.387C109.782 54.5018 89.4799 35.2677 60.6161 35.2677H35.2471ZM273.971 160.287L264.093 135.871H196.905L187.026 160.287H147.559L211.335 2.7129H249.887L313.664 160.287H273.971ZM196.15 134.741H264.848L274.726 159.157H311.994L249.133 3.84327H212.09L149.229 159.157H186.272L196.15 134.741ZM207.6 106.481H253.398L230.499 49.7365L207.6 106.481ZM209.267 105.351H251.731L230.499 52.739L209.267 105.351ZM488.758 45.8683C475.282 35.2357 460.136 29.3897 445.635 29.3897C431.491 29.3897 422.96 36.8502 422.96 46.1193C422.96 57.423 432.165 61.0402 455.962 66.466C489.189 73.9265 511.19 83.8738 511.19 112.585C511.19 142.201 488.965 161.87 451.248 161.87C424.532 161.87 400.734 152.827 382.774 136.097L401.857 113.264C402.141 113.51 402.426 113.754 402.711 113.997C417.097 126.22 433.443 133.61 452.595 133.61C469.208 133.61 477.739 125.924 477.739 116.202C477.739 105.125 468.759 101.734 445.186 96.3079C412.633 88.8474 389.509 79.5784 389.509 49.5104C389.509 20.7989 412.858 1.13037 446.533 1.13037C471.678 1.13037 491.21 9.043 506.925 22.6075L489.638 46.5714C489.345 46.3348 489.052 46.1004 488.758 45.8683ZM444.936 97.4099C428.663 93.6803 414.543 89.461 404.493 82.3102C394.344 75.0893 388.387 64.9102 388.387 49.5104C388.387 34.8221 394.369 22.41 404.67 13.6884C414.957 4.97953 429.484 0 446.533 0C471.939 0 491.732 8.0048 507.655 21.7493L508.442 22.428L489.854 48.1958L488.935 47.4527C475.398 36.5024 460.148 30.5201 445.635 30.5201C431.821 30.5201 424.083 37.7316 424.083 46.1193C424.083 48.7844 424.623 50.9128 425.725 52.7103C426.832 54.5151 428.562 56.0774 431.089 57.5122C436.196 60.4119 444.277 62.6427 456.207 65.3627C472.83 69.0953 486.838 73.4849 496.693 80.6396C506.64 87.8609 512.313 97.8672 512.313 112.585C512.313 127.7 506.63 140.35 496.081 149.202C485.555 158.035 470.29 163 451.248 163C424.273 163 400.197 153.866 382.012 136.927L381.226 136.194L401.729 111.661L402.59 112.407C417.025 124.931 433.387 132.48 452.595 132.48C460.744 132.48 466.771 130.593 470.729 127.643C474.66 124.714 476.617 120.695 476.617 116.202C476.617 113.593 476.09 111.523 475.014 109.78C473.934 108.03 472.242 106.517 469.757 105.123C464.731 102.306 456.759 100.131 444.936 97.4099ZM573.785 160.287V35.0416H525.741V2.7129H657.3V35.0416H609.257V160.287H573.785ZM608.134 159.157H574.907V33.9112H526.864V3.84327H656.178V33.9112H608.134V159.157ZM818.87 2.7129V92.0125C818.87 112.749 811.527 130.51 798.95 143.088C786.374 155.666 768.626 163 747.926 163C727.116 163 709.367 155.667 696.818 143.087C684.268 130.507 676.983 112.746 676.983 92.0125V2.7129H712.23V90.656C712.23 114.103 727.095 130.445 747.926 130.445C768.529 130.445 783.398 114.108 783.398 90.656V2.7129H818.87ZM678.106 92.0125C678.106 132.932 706.842 161.87 747.926 161.87C788.786 161.87 817.747 132.932 817.747 92.0125V3.84327H784.521V90.656C784.521 114.62 769.254 131.576 747.926 131.576C726.374 131.576 711.108 114.62 711.108 90.656V3.84327H678.106V92.0125ZM848.029 160.287V2.7129H904.379C956.705 2.7129 994.181 35.1763 994.181 81.387C994.181 127.594 956.709 160.287 904.379 160.287H848.029ZM904.379 159.157C956.24 159.157 993.058 126.828 993.058 81.387C993.058 35.9459 956.24 3.84327 904.379 3.84327H849.151V159.157H904.379ZM883.276 35.2677V127.732H908.645C923.099 127.732 935.387 122.902 944.051 114.728C952.71 106.558 957.811 94.9927 957.811 81.387C957.811 54.5018 937.509 35.2677 908.645 35.2677H883.276ZM1017.92 160.287V2.7129H1053.39V160.287H1017.92ZM1052.27 159.157H1019.04V3.84327H1052.27V159.157ZM1242 81.387C1242 125.668 1204.21 163 1158.93 163C1114.11 163 1075.87 125.672 1075.87 81.387C1075.87 37.098 1114.12 0 1158.93 0C1204.2 0 1242 37.102 1242 81.387ZM1112.24 81.387C1112.24 107.936 1133.78 130.445 1158.93 130.445C1184.32 130.445 1205.85 107.932 1205.85 81.387C1205.85 55.0711 1184.32 32.5548 1158.93 32.5548C1133.78 32.5548 1112.24 55.0676 1112.24 81.387ZM34.1246 128.863H60.6161C90.0261 128.863 110.905 109.194 110.905 81.387C110.905 53.8058 90.0261 34.1373 60.6161 34.1373H34.1246V128.863ZM882.154 128.863H908.645C938.055 128.863 958.934 109.194 958.934 81.387C958.934 53.8058 938.055 34.1373 908.645 34.1373H882.154V128.863ZM1240.88 81.387C1240.88 125.019 1203.61 161.87 1158.93 161.87C1114.71 161.87 1076.99 125.019 1076.99 81.387C1076.99 37.7545 1114.71 1.13037 1158.93 1.13037C1203.61 1.13037 1240.88 37.7545 1240.88 81.387ZM1111.11 81.387C1111.11 108.516 1133.12 131.576 1158.93 131.576C1184.98 131.576 1206.98 108.516 1206.98 81.387C1206.98 54.4841 1184.98 31.4244 1158.93 31.4244C1133.12 31.4244 1111.11 54.4841 1111.11 81.387Z" fill="white" fill-opacity="0.1"/>
</svg>
